<?xml version="1.0" encoding="UTF-8"?><svg id="Layer_2" xmlns="http://www.w3.org/2000/svg" viewBox="0 0 710.44 710.44"><defs><style>.cls-1{fill:#2a3952;}.cls-1,.cls-2{stroke-width:0px;}.cls-2{fill:#4689CC;}</style></defs><g id="Layer_1-2"><path class="cls-2" d="M710.43,363.59c.13-5.49-1.57-10.03-3.84-10.49-.02-3.29-.08-6.58-.19-9.86,2.25-.57,3.76-5.16,3.41-10.64-.35-5.45-2.41-9.81-4.71-10.12-.3-3.28-.66-6.55-1.05-9.82,2.17-.8,3.26-5.49,2.44-10.88-.82-5.37-3.23-9.51-5.53-9.67-.59-3.24-1.21-6.48-1.88-9.71,2.05-1.05,2.69-5.78,1.42-11.03-1.27-5.24-4.01-9.15-6.31-9.15-.87-3.19-1.78-6.36-2.74-9.53,1.92-1.25,2.15-6,.43-11.09-1.71-5.06-4.73-8.68-7.01-8.57-1.15-3.11-2.35-6.21-3.59-9.29,1.76-1.45,1.56-6.16-.58-11.05-2.13-4.87-5.44-8.21-7.7-7.93-1.42-3.01-2.88-6-4.39-8.98,1.59-1.63.97-6.27-1.57-10.92-2.54-4.65-6.11-7.68-8.34-7.23-1.68-2.87-3.41-5.72-5.18-8.56,1.44-1.76.42-6.33-2.52-10.74-2.94-4.41-6.75-7.12-8.94-6.47-1.93-2.71-3.88-5.41-5.9-8.08,1.27-1.88-.15-6.34-3.45-10.48-3.33-4.16-7.39-6.53-9.5-5.66-2.15-2.52-4.34-5.02-6.57-7.5,1.16-1.97-.64-6.32-4.33-10.18-3.69-3.87-7.97-5.88-9.98-4.8-2.35-2.32-4.74-4.62-7.18-6.89,1-2.05-1.18-6.25-5.19-9.78-4.02-3.53-8.45-5.16-10.36-3.91-2.56-2.13-5.15-4.2-7.75-6.24.82-2.13-1.72-6.12-6.03-9.29-4.3-3.16-8.85-4.4-10.65-3-2.74-1.9-5.49-3.75-8.27-5.56.59-2.2-2.27-5.93-6.82-8.7-4.52-2.76-9.12-3.59-10.83-2.09-2.9-1.66-5.83-3.26-8.76-4.82.36-2.25-2.81-5.69-7.56-8.04-4.75-2.35-9.41-2.79-10.98-1.14-3.03-1.39-6.08-2.75-9.14-4.05.16-2.27-3.29-5.42-8.23-7.35-4.94-1.93-9.62-1.96-11.04-.17-3.14-1.12-6.3-2.18-9.46-3.21,0-2.28-3.74-5.13-8.84-6.63-5.12-1.5-9.82-1.11-11.03.82-3.22-.84-6.44-1.64-9.67-2.38-.18-2.28-4.15-4.81-9.39-5.86-5.28-1.06-9.96-.23-10.95,1.83-3.26-.55-6.53-1.05-9.8-1.51-.3-2.28-4.52-4.5-9.88-5.09-5.37-.6-9.98.64-10.76,2.81-3.29-.26-6.58-.46-9.87-.63-.45-2.26-4.86-4.13-10.29-4.25-5.46-.13-9.97,1.55-10.49,3.8-3.29.02-6.58.09-9.87.2-.6-2.24-5.18-3.73-10.63-3.38-5.47.35-9.84,2.43-10.12,4.73-3.27.31-6.54.67-9.8,1.07-.75-2.2-5.46-3.31-10.9-2.48-5.43.83-9.6,3.28-9.67,5.6-3.23.59-6.46,1.23-9.68,1.91-.94-2.12-5.73-2.82-11.07-1.52-5.36,1.3-9.3,4.13-9.14,6.45-3.17.87-6.32,1.78-9.47,2.74-1.1-2.05-5.95-2.33-11.17-.57-5.22,1.76-8.91,4.92-8.54,7.22-3.08,1.14-6.14,2.34-9.18,3.57-1.27-1.96-6.13-1.82-11.18.4-5.06,2.22-8.46,5.7-7.87,7.96-2.96,1.41-5.91,2.85-8.84,4.34-1.43-1.85-6.26-1.29-11.11,1.36-4.88,2.67-7.97,6.46-7.13,8.65-2.82,1.66-5.62,3.36-8.4,5.1-1.54-1.78-6.35-.81-10.99,2.28-4.66,3.1-7.41,7.18-6.33,9.28-2.66,1.9-5.3,3.82-7.92,5.8-1.66-1.68-6.4-.3-10.78,3.2-4.43,3.54-6.82,7.92-5.45,9.88-2.47,2.11-4.92,4.27-7.35,6.46-1.75-1.66-6.42.13-10.54,4.06-4.14,3.95-6.15,8.57-4.53,10.37-2.28,2.31-4.53,4.66-6.75,7.05-1.86-1.57-6.4.62-10.19,4.93-3.81,4.33-5.41,9.15-3.57,10.77,0,0,0,0,0,0-2.08,2.51-4.11,5.05-6.11,7.6,0,0,0,0,0,0-1.97-1.45-6.34,1.14-9.76,5.78-3.42,4.64-4.59,9.58-2.62,11.04,0,0,.01,0,.02.01-1.85,2.68-3.67,5.38-5.44,8.1,0,0,0,0-.01-.01-2.09-1.27-6.22,1.69-9.22,6.61-3,4.92-3.74,9.95-1.65,11.22,0,0,0,0,.01,0-1.61,2.83-3.17,5.68-4.69,8.55,0,0-.01-.01-.02-.01-2.19-1.09-6.05,2.22-8.61,7.39-2.56,5.17-2.86,10.24-.66,11.32.01,0,.03,0,.04.02-1.36,2.96-2.67,5.94-3.94,8.93-.02,0-.03-.02-.05-.02-2.28-.89-5.83,2.74-7.93,8.11-2.1,5.37-1.95,10.45.33,11.34.02,0,.05.01.08.02-1.09,3.07-2.13,6.15-3.13,9.25-.03-.01-.06-.03-.09-.04-2.35-.69-5.57,3.24-7.19,8.77-1.62,5.53-1.03,10.58,1.31,11.27.04.01.09.01.14.02-.82,3.16-1.6,6.32-2.33,9.49-.05-.01-.09-.04-.14-.05-2.4-.48-5.27,3.71-6.4,9.36-1.13,5.65-.11,10.63,2.29,11.11.07.01.14.01.21.02-.54,3.22-1.03,6.44-1.48,9.67-.08-.02-.15-.04-.23-.05-2.43-.27-4.92,4.16-5.56,9.89-.64,5.73.82,10.6,3.25,10.87.08,0,.17,0,.25,0-.26,3.25-.46,6.51-.63,9.77-.09-.02-.18-.04-.28-.04-2.45-.06-4.54,4.57-4.68,10.33-.14,5.76,1.74,10.48,4.19,10.54.11,0,.22-.02.32-.03.02,3.27.09,6.53.2,9.8-.11-.01-.22-.03-.33-.02-2.44.16-4.13,4.95-3.76,10.7.37,5.75,2.65,10.29,5.09,10.14.12,0,.23-.04.35-.06.31,3.25.66,6.5,1.06,9.75-.12,0-.24,0-.37.01-2.42.37-3.68,5.29-2.81,10.99s3.53,10.02,5.95,9.65c.12-.02.23-.06.35-.1.59,3.21,1.22,6.42,1.9,9.62-.12,0-.24.01-.36.04-2.38.58-3.2,5.59-1.84,11.19,1.36,5.6,4.39,9.68,6.77,9.1.12-.03.24-.08.35-.13.86,3.15,1.77,6.29,2.72,9.42-.12.02-.24.04-.36.08-2.32.78-2.71,5.85-.86,11.31,1.84,5.46,5.22,9.26,7.54,8.47.11-.04.22-.09.32-.15,1.13,3.06,2.32,6.11,3.54,9.14-.12.03-.24.06-.35.11-2.24.98-2.19,6.06.13,11.34,2.31,5.28,6.01,8.77,8.25,7.79.11-.05.21-.11.31-.18,1.4,2.95,2.83,5.89,4.31,8.8-.11.04-.22.07-.33.13-2.15,1.17-1.65,6.23,1.12,11.29,2.76,5.06,6.75,8.21,8.9,7.04.11-.06.21-.14.3-.22,1.65,2.82,3.35,5.61,5.08,8.39-.12.05-.24.1-.34.17-2.04,1.36-1.1,6.35,2.09,11.15,3.2,4.8,7.44,7.59,9.48,6.23.11-.07.21-.16.3-.26,1.89,2.66,3.81,5.3,5.79,7.92-.12.06-.23.13-.34.21-1.91,1.53-.54,6.42,3.06,10.92s8.07,6.91,9.98,5.39c.12-.09.22-.2.31-.32,2.12,2.49,4.28,4.95,6.47,7.38-.13.08-.26.17-.37.28-1.77,1.69.02,6.44,4,10.61,3.98,4.17,8.64,6.18,10.41,4.49.12-.11.22-.24.3-.38,2.33,2.3,4.69,4.57,7.09,6.81-.13.09-.26.2-.36.32-1.62,1.84.58,6.42,4.91,10.23,4.33,3.81,9.15,5.41,10.77,3.57.11-.12.2-.26.27-.4,2.53,2.1,5.09,4.15,7.66,6.17-.13.1-.24.22-.33.35-1.45,1.97,1.14,6.34,5.78,9.76,4.64,3.42,9.58,4.59,11.04,2.62.09-.13.17-.26.23-.4,2.7,1.87,5.41,3.7,8.15,5.48-.1.11-.2.22-.28.35-1.27,2.09,1.69,6.22,6.61,9.22s9.95,3.74,11.22,1.65c.07-.11.12-.24.16-.36,2.85,1.62,5.71,3.2,8.59,4.73-.08.1-.16.21-.22.33-1.09,2.19,2.22,6.05,7.39,8.61,5.17,2.56,10.24,2.86,11.32.66.06-.12.1-.24.13-.36,2.97,1.37,5.96,2.7,8.96,3.98-.07.11-.13.21-.18.33-.89,2.28,2.74,5.83,8.11,7.93,5.37,2.1,10.45,1.95,11.34-.33.04-.11.07-.23.09-.34,3.08,1.1,6.18,2.15,9.28,3.16-.05.11-.11.22-.14.33-.69,2.35,3.24,5.57,8.77,7.19,5.53,1.62,10.58,1.03,11.27-1.31.03-.12.05-.24.06-.36,3.16.83,6.34,1.62,9.52,2.35-.04.11-.09.22-.11.34-.48,2.4,3.71,5.27,9.36,6.4,5.65,1.13,10.63.11,11.11-2.29.02-.12.03-.25.03-.37,3.22.55,6.45,1.05,9.69,1.5-.04.12-.07.24-.09.37-.27,2.43,4.16,4.92,9.89,5.56s10.6-.82,10.87-3.25c.01-.12,0-.24,0-.36,3.26.27,6.52.48,9.78.66-.02.12-.05.23-.05.35-.06,2.45,4.57,4.54,10.33,4.68,5.76.14,10.48-1.74,10.54-4.19,0-.12-.01-.24-.03-.36,3.27-.02,6.54-.08,9.8-.19-.01.12-.03.24-.02.35.16,2.44,4.95,4.13,10.7,3.76,5.75-.37,10.29-2.65,10.14-5.09,0-.11-.03-.22-.06-.32,3.25-.3,6.5-.65,9.74-1.04,0,.11,0,.22.01.32.37,2.42,5.29,3.68,10.99,2.81,5.7-.87,10.02-3.53,9.66-5.95-.01-.09-.05-.18-.08-.27,3.21-.58,6.42-1.19,9.61-1.86,0,.08.01.17.03.25.58,2.38,5.59,3.2,11.19,1.84,5.6-1.36,9.68-4.39,9.1-6.77-.02-.08-.05-.15-.08-.22,3.14-.86,6.28-1.76,9.4-2.7.01.07.02.14.04.21.78,2.32,5.85,2.71,11.31.86,5.46-1.84,9.26-5.22,8.47-7.54-.02-.05-.04-.09-.06-.13,3.05-1.13,6.09-2.3,9.12-3.52.02.04.02.09.04.13.98,2.24,6.06,2.19,11.34-.13s8.77-6.01,7.79-8.25c-.01-.03-.04-.06-.05-.09,2.94-1.39,5.87-2.81,8.77-4.28.01.02.02.05.03.07,1.17,2.15,6.23,1.65,11.29-1.12s8.21-6.75,7.04-8.9c0-.02-.02-.03-.03-.04,2.8-1.64,5.59-3.32,8.35-5.04,0,.01.01.03.02.04,1.36,2.04,6.35,1.1,11.15-2.1s7.59-7.44,6.23-9.47c0,0-.01-.01-.02-.02,2.65-1.88,5.28-3.79,7.88-5.74,0,0,0,0,0,.01,1.53,1.91,6.42.54,10.92-3.06,4.5-3.6,6.91-8.07,5.39-9.98,0,0,0,0-.01-.01,2.47-2.1,4.92-4.24,7.34-6.42,0,0,0,.01.01.02,1.69,1.77,6.44-.02,10.61-4s6.18-8.64,4.49-10.41c0,0,0,0,0,0,2.28-2.3,4.54-4.64,6.76-7.02,0,0,0,0,0,0,1.84,1.62,6.42-.58,10.23-4.91,3.79-4.31,5.39-9.1,3.59-10.74,2.09-2.51,4.13-5.04,6.14-7.6,1.99,1.38,6.32-1.2,9.71-5.81,3.37-4.58,4.55-9.45,2.69-10.97,1.87-2.68,3.69-5.39,5.47-8.11,2.12,1.11,6.16-1.82,9.11-6.66,2.92-4.79,3.69-9.66,1.81-11.1,1.63-2.85,3.2-5.71,4.75-8.59,2.22.81,5.92-2.44,8.4-7.46,2.47-5,2.83-9.89.86-11.19,1.37-2.98,2.71-5.97,3.99-8.98,2.28.55,5.65-3,7.68-8.18,2.01-5.15,1.96-10.01-.06-11.19,1.11-3.09,2.16-6.2,3.18-9.32,2.32.3,5.34-3.52,6.9-8.82,1.55-5.3,1.08-10.14-1.03-11.14.83-3.18,1.63-6.37,2.37-9.56,2.33.07,4.99-3.99,6.08-9.39,1.08-5.4.19-10.17-1.98-11.01.55-3.24,1.05-6.49,1.51-9.74,2.33-.13,4.63-4.41,5.24-9.88.61-5.46-.69-10.12-2.91-10.79.27-3.28.49-6.56.67-9.84,2.29-.36,4.2-4.81,4.33-10.3Z"/><path class="cls-1" d="M571.94,251.57c-1.45-22.66-12.89-43.26-37.11-27.98v-11.25h-16.76c-.09,7.76-.15,15.24-.19,22.49-12.76,3.72-14.22-14.16-14.18-22.49h-84.27v-42.66h-37.76c0,9.35-3.53,14.02-10.59,14.02h-23.02c-5.47,0-8.8-2.47-10.03-7.36h21.08l4.61-11.03h-26.25v-7.13h21.64l4.61-11.03h-25.28c2.52-10.73,18.58-8.65,27.59-8.73,10.44,0,15.65,5.52,15.65,16.55h37.76c.2-20.02-16.9-36.86-37.06-36.32,0,0-47.89,0-47.89,0-18.66-.35-35.5,10.94-41.32,28.5h-10.71l-4.61,11.03h13.23c-.15,1.94-.1,5.14-.1,7.13h-8.52l-4.61,11.03h13.12v35.99h-88.86c-9.58,0-20.08,6.98-28.18,22.09-5.5,10.67-6.74,38.86-9.16,51.32-.95,8.52-7.04,17.25-13.29,8.98-2.9-3.74-1.9-15.08-2.06-20.25,0-8.09,3.3-15.14,11.23-15.42v-40.04c-19.35.1-28.73,15.63-28.64,34.75v15.65h-16.04v16.57h16.04v16.34c0,25.31,8.09,37.97,24.29,37.97,12.7-.3,17.88-7.43,21.77-20.25,3.84-12.12,6.46-45.62,9.85-58.7,1.7-6.51,1.91-10.66,7.33-11.51,6.36.28,6.42,4.62,6.64,11.05-.42,7.74,2.71,19.5-8.94,18.64v12.29h57.76v63.76h47.87c12.23.3,18.84,2.4,22.98,11.14h-63.24v17.87h65.49v6.31l-1.91,4.84h-63.58v17.87h56.56l-46.41,117.71c-4.25,2.49-8.27,4.08-12.04,4.84-4.99,1.47-12.25,1.6-18.05,1.5v29.73h96.74v-31.6h-5.29c-6.85.34-8.75-5.25-3.01-8.2l15.93-104.94c1.08-7.09,6.78-10.63,12.49-10.63s11.41,3.54,12.49,10.63l15.93,104.94c5.74,2.95,3.84,8.54-3.01,8.2,0,0-5.29,0-5.29,0v31.6h96.7v-29.73h-5.26c-4.77,0-9.03-.51-12.8-1.5-3.77-.75-7.78-2.34-12.03-4.84l-46.41-117.71h56.56v-17.87h-63.58l-1.91-4.84v-6.31h65.49v-17.87h-63.24c4.13-8.74,10.75-10.84,22.98-11.14,0,0,47.87,0,47.87,0v-64.07h44.24v-21.29c4.17,3.86,8.52,6,14.08,5.7.03,5.18.05,10.36.05,15.59h16.76v-23.5c4.19-3.89,12.55-7.92,16.04-2.09,1.8,3.12,1.42,13.21,1.44,17.94.5,12.39-7.52,13.8-17,13.15v43.29c23.39,2.71,38.25-16.13,37.59-40.18-.23-11.34.66-37.41-.96-48.55Z"/></g></svg>